<?xml version="1.0" encoding="UTF-8"?>
<svg width="231px" height="36px" viewBox="0 0 231 36" version="1.1" xmlns="http://www.w3.org/2000/svg" xmlns:xlink="http://www.w3.org/1999/xlink">
    <title>Logo / Banabi / Banabi-Horizontal</title>
    <g id="Symbols" stroke="none" stroke-width="1" fill="none" fill-rule="evenodd">
        <g id="Header" transform="translate(-222.000000, -23.000000)" fill="#FFFFFF">
            <g id="Group-2" transform="translate(222.000000, 20.434783)">
                <g id="Logo-/-Banabi-/-Banabi-Horizontal" transform="translate(0.000000, 3.000000)">
                    <path d="M231,0 L225.063711,35 L145.137923,35 L151.125897,0 L231,0 Z M102.963688,11.7240274 C103.544198,11.7823416 104.105638,11.9660291 104.610196,12.2627191 C105.00339,12.5364841 105.190916,13.0263926 105.082737,13.497221 L105.016286,13.8413852 C105.431727,13.2465167 105.977632,12.7573637 106.61111,12.4123557 C107.323651,12.0057541 108.126543,11.789483 108.944278,11.783882 C111.853355,11.7464729 113.093774,14.2154767 113.086423,17.0286447 L113.086423,17.0436084 C113.086423,21.9741342 110.081329,26.7026507 105.355924,26.6951689 C104.858056,26.6933234 104.362232,26.6305195 103.879235,26.5081231 C103.620806,26.4359965 103.372642,26.3303788 103.140891,26.1938863 L103.081823,26.1938863 C103.081823,26.1938863 102.343479,30.1667379 102.343479,30.1966652 C102.070291,31.4985036 101.715886,31.6331766 100.733888,31.745404 C99.8798754,31.8219046 99.0211441,31.6669775 98.2456669,31.2964942 L98.2013662,31.2964942 C97.7375936,31.0650251 97.4490336,30.8204044 97.554702,30.0324559 L97.5811569,29.8674647 C97.5811569,29.8674647 98.2978731,26.1271922 99.0603219,22.1548095 L99.2082835,21.3840049 C100.023231,17.1390017 100.840948,12.8874519 100.852023,12.8612655 C100.984925,12.1729372 101.206428,11.8362548 101.78972,11.7240274 C102.179541,11.6748881 102.573868,11.6748881 102.963688,11.7240274 Z M11.468043,5.31958102 C12.1325531,4.11500641 12.9594988,4.0626336 14.0448652,4.64621633 C14.871894,5.10492473 15.5530733,5.79258586 16.0088615,6.62890124 C16.3321673,7.14101319 16.3175764,7.80043582 15.9719442,8.29734929 C14.6872249,10.2426251 13.4394227,12.0981189 12.0513352,14.1631039 C9.28089243,18.6197062 7.28316551,23.5236866 6.14457953,28.6628901 C5.94035893,29.5200007 5.2111274,30.1438672 4.34301905,30.2041471 C3.4125197,30.3956477 2.44598226,30.1631046 1.6997459,29.5681915 C1.18766745,29.1961999 0.87419658,28.6050985 0.850649779,27.9670799 C0.800949625,26.3363556 1.11385423,24.7151865 1.7661969,23.2235998 C2.43809036,21.5775973 3.24288582,19.9690038 3.98123027,18.3529286 C4.13490071,18.076138 4.09938033,17.7311984 3.89262894,17.4925182 C3.32141794,16.6468123 2.82715955,15.7503007 2.41594002,14.8140231 C1.42474469,12.4946267 0.68214517,10.074102 0.200906659,7.59405729 C0.119688768,7.17507482 0.060621212,6.75609235 0.0163205446,6.32962805 C-0.0870476791,5.16246259 0.282124549,4.73599829 1.65544524,4.74348012 C2.77487673,4.77457586 3.83666275,5.25336669 4.60882306,6.07524583 C4.93655082,6.44156684 5.16543481,6.88739532 5.27333307,7.36960239 C5.71633974,9.24754168 6.55066898,13.1530569 6.70572131,13.5645575 L6.70572131,13.5645575 L9.0241229,9.5767422 C9.85106869,8.15519453 10.6927814,6.73364686 11.468043,5.31958102 Z M81.0422411,11.6117999 C82.3699504,11.5381113 83.6976055,11.7576555 84.9333164,12.2552373 L84.9333164,12.2552373 L85.0964056,12.3425063 C86.0757383,12.8868347 86.051539,13.280248 85.8340966,13.9910218 C85.6518106,14.5789864 85.302541,15.0994623 84.8299481,15.4873878 L84.8299481,15.4873878 L84.8299481,15.4724241 C84.5272269,15.7118427 84.4607759,15.7567336 83.7224315,15.5098333 L83.7224315,15.5098333 L83.5230785,15.4499786 C82.7804048,15.2388569 82.0129348,15.1306337 81.2415941,15.1282599 C80.2669794,15.1581873 79.6467701,15.5322788 79.6910707,16.1981616 C79.6910707,16.6395896 80.193145,17.0286447 81.1677596,17.4925182 C82.8364181,18.3978196 84.5641441,19.5874305 84.6675124,21.3905515 C84.8594819,24.712484 82.253126,26.6278324 78.3325169,26.7176144 C77.0470544,26.7572645 75.7667512,26.5359496 74.5669602,26.0666952 C73.7400144,25.6701582 73.5849621,25.3185122 73.6514131,24.5703292 C73.7260201,23.9381003 73.9828308,23.3421675 74.3897575,22.8569902 C74.6407947,22.5277897 74.928749,22.3482257 75.593259,22.6774263 C76.5324237,23.0562344 77.5358918,23.2443497 78.5466368,23.2310817 C79.4991012,23.2011543 79.9051906,22.7522445 79.8756569,22.1985891 C79.8461231,21.6449337 79.4178833,21.2483968 78.1996149,20.6423685 C76.590024,19.8044036 75.0690344,18.5923472 74.9730497,16.9014536 C74.795847,13.8563489 77.2693009,11.7240274 81.0422411,11.6117999 Z M122.300929,11.7240274 C125.210006,11.8212912 127.137085,13.6618213 127.085401,16.3477982 C126.967266,20.0887131 123.718551,21.4653698 118.432004,21.1212056 C118.474336,21.4987575 118.634745,21.8526874 118.889778,22.1312527 C119.534292,22.6762362 120.354484,22.961268 121.193413,22.9318085 C122.009742,22.9419374 122.823146,22.8310303 123.607799,22.602608 C124.264926,22.423044 124.479045,22.557717 124.877751,23.0889269 C125.210863,23.6103124 125.413601,24.2060869 125.468427,24.8247114 L125.461044,24.8247114 C125.461044,25.2511757 125.416743,25.5728944 124.722699,25.8197948 C123.171897,26.3666999 121.535149,26.620302 119.893926,26.5679778 C115.862566,26.4407867 113.891186,24.1214194 113.987171,20.3879863 C114.127456,16.0410432 117.147285,11.5594271 122.300929,11.7240274 Z M94.0371035,11.7240274 C96.9461807,11.8212912 98.8732597,13.6618213 98.8215756,16.3477982 C98.7034405,20.0887131 95.4621083,21.4653698 90.1681786,21.1212056 C90.2105107,21.4987575 90.3709188,21.8526874 90.6259521,22.1312527 C91.2727314,22.6773597 92.0956309,22.9624189 92.9369703,22.9318085 C93.7532295,22.9407681 94.5664664,22.8298836 95.3513566,22.602608 C96.0084832,22.423044 96.2152197,22.557717 96.6213091,23.0889269 C96.9489424,23.611832 97.1465583,24.2074449 97.1972178,24.8247114 C97.1972178,25.2511757 97.1529171,25.5728944 96.4588733,25.8197948 C94.9080711,26.3666999 93.2713232,26.620302 91.6301006,26.5679778 C87.5987399,26.4407867 85.6273602,24.1214194 85.7233449,20.3879863 C85.8636304,16.0410432 88.8834592,11.5594271 94.0371035,11.7240274 Z M55.480756,11.7240274 C58.3898332,11.8212912 60.3169122,13.6618213 60.2652281,16.3477982 C60.147093,20.0887131 56.8983774,21.4653698 51.6118311,21.1212056 C51.6541632,21.4987575 51.8145714,21.8526874 52.0696047,22.1312527 C52.7141192,22.6762362 53.5343109,22.961268 54.3732394,22.9318085 C55.1895692,22.9419374 56.0029724,22.8310303 56.7876257,22.602608 C57.4447523,22.423044 57.6588722,22.557717 58.0575782,23.0889269 C58.3880834,23.6110089 58.5882714,24.2067366 58.6408703,24.8247114 C58.6408703,25.2511757 58.5965696,25.5728944 57.9025259,25.8197948 C56.3517237,26.3666999 54.7149757,26.620302 53.0737531,26.5679778 C49.0423924,26.4407867 47.0710127,24.1214194 47.1669975,20.3879863 C47.3072829,16.0410432 50.3271117,11.5594271 55.480756,11.7240274 Z M20.4906123,11.7240274 C23.392306,11.8212912 25.3267685,13.6618213 25.2677009,16.3477982 C25.1495658,20.0887131 21.9082336,21.4653698 16.6143039,21.1212056 C16.6600582,21.4977822 16.8200042,21.8506926 17.0720775,22.1312527 C17.7202273,22.6748838 18.5421682,22.9596109 19.3830956,22.9318085 C20.1993933,22.941403 21.0127203,22.8305063 21.797482,22.602608 C22.4546085,22.423044 22.6687284,22.557717 23.0674344,23.0889269 C23.3950677,23.611832 23.5926836,24.2074449 23.6433431,24.8247114 C23.6433431,25.2511757 23.6433431,25.5728944 22.9049987,25.8197948 C21.3543183,26.367197 19.7174789,26.6208133 18.0762259,26.5679778 C14.0522486,26.4407867 12.0734855,24.1214194 12.1694703,20.3879863 C12.3097557,16.0410432 15.336968,11.5594271 20.4906123,11.7240274 Z M140.427286,11.7464729 C141.205469,11.724259 141.977606,11.8910056 142.679236,12.2327918 C143.23414,12.4847698 143.536825,13.0982051 143.402814,13.6992304 L143.402814,13.6992304 L141.822757,24.9219752 C141.630787,26.2238136 141.209931,26.3734502 140.346068,26.4856776 C139.489039,26.5821393 138.621938,26.4533042 137.828313,26.1115861 C137.557923,26.0416085 137.326943,25.8638186 137.187887,25.6186373 C137.048831,25.3734559 137.013515,25.081717 137.089969,24.8097478 C137.089969,24.8097478 137.090523,24.80583 137.091611,24.7981367 L137.115274,24.6307987 C137.324892,23.1484204 138.766011,12.9558086 138.766011,12.9211201 C138.950597,12.0681915 139.209017,11.7464729 140.427286,11.7464729 Z M35.6340571,11.6492091 C37.1246457,11.5111441 38.4677666,12.5620981 38.7129535,14.0583583 C39.7359516,12.562086 41.4131793,11.6634591 43.2094712,11.6492091 L43.2094712,11.6492091 L43.2168546,11.6417272 C45.4614218,11.6417272 46.4655702,13.1605387 46.5024875,15.3751603 C46.4620474,16.2558756 46.365865,17.1330528 46.2145331,18.0012826 L46.2145331,18.0012826 L44.8485959,25.1165028 C44.6197091,26.3061137 43.969966,26.5679778 42.9141334,26.470714 C42.1237228,26.4229585 41.3597051,26.1648924 40.6991,25.722531 C40.3196636,25.3990982 40.1834426,24.8679591 40.3594616,24.3982471 L40.3594616,24.3982471 L41.4965121,18.5175289 C41.6127378,17.9206939 41.6794219,17.3150421 41.6958651,16.706926 C41.6958651,16.003634 41.3857604,15.5098333 40.7212504,15.5098333 C39.6506509,15.5098333 38.70557,17.0136811 38.173962,19.7969218 L38.173962,19.7969218 L37.1402798,25.1838392 C36.9261599,26.2986319 36.4019353,26.5979051 35.1984338,26.4931595 C34.4320934,26.4281706 33.6937366,26.1710587 33.0498515,25.7449765 C32.6528315,25.4507757 32.498705,24.9240502 32.6732958,24.4581018 L32.6732958,24.4581018 L33.8324966,18.510047 C33.9542591,17.9442356 34.0234733,17.3681143 34.0392331,16.7892262 C34.0392331,16.0260795 33.7808125,15.5023514 33.1458363,15.5023514 C32.1047706,15.5023514 31.0046373,17.0211629 30.4730293,19.7894399 L30.4730293,19.7894399 L29.3359789,25.722531 C29.1956934,26.4108593 28.2727629,26.5754596 27.4088998,26.470714 C26.6409763,26.3966658 25.9054429,26.1207115 25.2750844,25.6701582 C24.9354459,25.3783668 24.8468446,25.1015391 24.98713,24.3533561 L24.98713,24.3533561 L27.2021634,12.7565199 C27.4015164,11.7090637 27.9848085,11.6492091 28.723153,11.6492091 C29.4186605,11.6394657 30.1066591,11.7958155 30.7314499,12.1056007 C31.1956833,12.3566895 31.4234529,12.9025115 31.2778248,13.4149209 C31.248291,13.5795212 31.1449228,14.0658401 31.1449228,14.0658401 C32.1415393,12.5426629 33.8306011,11.633392 35.6340571,11.6492091 Z M65.1678353,5.38691749 C65.9807016,5.39105401 66.7780182,5.61304416 67.4788534,6.03035485 C67.9155746,6.36988266 68.1005495,6.94707818 67.9440104,7.48182984 C67.7617808,8.43695706 67.4137662,10.2496666 67.0740579,12.0171492 L66.9725687,12.5451343 C66.552186,14.7318957 66.1719838,16.706926 66.1719838,16.706926 C66.1719838,16.706926 67.4032359,15.4592674 68.5146665,14.3446856 L69.1563377,13.7029517 C69.6105942,13.250197 69.9858685,12.8803102 70.1590438,12.7191107 C70.79402,12.1280462 71.2222598,11.783882 71.6357327,11.7689183 C72.4573563,11.7681567 73.2582934,12.0299663 73.9246005,12.5171013 C74.7072457,13.1231295 74.8106139,13.9162035 74.2273218,14.4698589 L69.6791199,18.5250107 C69.6791199,18.5250107 72.0492056,23.9418555 72.3740772,24.6900385 C72.669415,25.3559213 72.3740772,25.8048311 71.5397479,26.1115861 C70.616206,26.4381683 69.6299407,26.5406717 68.6602046,26.4108593 C68.2366835,26.3608214 67.8784176,26.0703896 67.737274,25.6626764 L66.0907659,21.1735785 L65.1383015,22.0190252 L64.5623928,25.0117572 C64.3187392,26.2312954 63.8831159,26.380932 62.9749523,26.4557503 C62.1481074,26.5260141 61.3172207,26.3818255 60.5605659,26.0367678 C59.9772738,25.7524583 59.6597857,25.4382215 59.9108228,24.4431381 L63.2850569,6.88328345 C63.4917934,5.82086362 63.6616126,5.38691749 65.1678353,5.38691749 Z M132.261196,7.88584865 C133.059273,7.87323133 133.851245,8.0286409 134.586981,8.34224027 C134.837301,8.41467076 135.047852,8.58702478 135.170358,8.81978439 C135.292864,9.05254401 135.316817,9.32574331 135.236724,9.5767422 C135.236724,9.64407867 134.771567,11.9709277 134.771567,11.9709277 L134.771567,11.9709277 L136.248256,11.9709277 C136.529858,11.9543462 136.805643,12.0568003 137.009938,12.2538927 C137.214234,12.4509851 137.328758,12.7250782 137.32628,13.0109021 C137.281938,13.4149209 137.222871,13.7964942 137.060435,14.6045319 C136.972876,15.0654551 136.609779,15.4214254 136.152271,15.4948696 L136.152271,15.4948696 L134.107057,15.4948696 L133.221044,20.1036768 C133.104724,20.5962751 133.020859,21.0961667 132.970007,21.6000428 C132.976803,21.8910548 133.10901,22.1644587 133.331795,22.3482257 C133.582833,22.5651988 134.195658,22.3856349 134.483613,22.3482257 C134.924692,22.2609862 135.358106,22.5310064 135.480378,22.9692176 C135.655603,23.4210365 135.731204,23.906219 135.701881,24.3907653 C135.650197,25.1389483 135.532062,25.3783668 134.527913,25.8871313 C133.766464,26.2780373 132.92273,26.4757349 132.069226,26.4632322 C129.507171,26.4632322 128.288903,25.1539119 128.192918,23.1936725 C128.202358,22.3795052 128.301416,21.568947 128.488256,20.7770415 L128.488256,20.7770415 L129.492404,15.4724241 L128.916496,15.4724241 C127.816362,15.4125695 127.949264,14.6494228 128.015715,14.2753313 C128.126467,13.676785 128.244602,13.1081659 128.318437,12.7191107 C128.406439,12.2822255 128.786574,11.969054 129.2266,11.9709277 L129.2266,11.9709277 L130.164298,11.9709277 L130.658988,9.38221462 C130.917409,8.11778538 131.301348,7.88584865 132.261196,7.88584865 Z M181.41545,12.7681979 L181.255792,12.7706123 C180.295778,12.8038461 180.174953,13.178532 180.028782,13.9420242 L180.002548,14.0808038 L178.045936,24.4506199 L178.011522,24.6079612 C177.86781,25.3613866 178.144689,25.6257348 178.629228,25.8572039 C179.293867,26.1767393 180.029761,26.3134939 180.763043,26.2537409 C181.523128,26.1972115 181.802445,26.0739461 182.011514,25.1528138 L182.047763,24.9818298 L183.00761,20.313168 L183.061708,20.044325 C183.544212,17.7548235 184.377923,16.5198803 185.259561,16.5198803 C185.850237,16.5198803 186.130807,16.9613083 186.130807,17.5748183 C186.119881,17.9803182 186.082404,18.3844861 186.018681,18.7846632 L185.946221,19.1834117 L184.942073,24.4206926 L184.903499,24.5471652 C184.812391,24.9300473 184.941156,25.3376418 185.244794,25.5953399 C185.822871,25.9890616 186.49205,26.2236881 187.18664,26.2761864 C188.072243,26.3609805 188.60221,26.1588094 188.857401,25.2410794 L188.899599,25.0716118 L190.110484,18.7793929 L190.200659,18.2007917 C190.282335,17.6209608 190.338489,17.0376335 190.36895,16.4525438 C190.376288,14.4548953 189.482891,13.1156477 187.496745,13.1081659 C186.263292,13.1293916 185.085538,13.6166315 184.191524,14.468758 L184.004375,14.6569047 L184.004375,14.5820864 L184.032718,14.4443684 C184.092759,14.0298805 183.929918,13.6094749 183.598286,13.3475844 C183.060095,13.015954 182.451775,12.8217574 181.825558,12.7799773 L181.589989,12.7714835 L181.41545,12.7681979 Z M174.117943,12.8014109 C168.041368,12.8014109 165.641749,17.6047456 165.597448,21.7796067 C165.597448,24.3982471 166.919085,26.1714408 169.0529,26.1864044 C170.163198,26.169845 171.214705,25.6778578 171.94721,24.8321932 C171.929572,25.1269392 172.063636,25.4099618 172.301616,25.5803762 C172.886166,25.9652257 173.556034,26.1966327 174.250845,26.2537409 C175.143422,26.3314688 175.706705,26.1289052 175.940697,25.2363647 L175.978571,25.0716118 L177.159922,18.8991022 L178.105003,14.2828132 L178.120165,14.1697354 C178.149002,13.7569438 177.888004,13.3716417 177.484794,13.2578025 C176.384428,12.9704683 175.254149,12.817254 174.117943,12.8014109 Z M199.819714,12.8014109 C193.743139,12.8014109 191.343519,17.6047456 191.299219,21.7796067 C191.299219,24.3982471 192.620855,26.1714408 194.747287,26.1864044 C195.858006,26.1717256 196.910232,25.6794024 197.641598,24.8321932 C197.626782,25.1263718 197.760226,25.4080852 197.996003,25.5803762 C198.583792,25.9641378 199.255761,26.1953949 199.952616,26.2537409 C200.845192,26.3314688 201.408476,26.1289052 201.636247,25.2363647 L201.672958,25.0716118 L202.861693,18.8991022 L203.79939,14.2828132 L203.815709,14.1785201 C203.855534,13.7626413 203.594244,13.3694716 203.186564,13.2578025 C202.086198,12.9704683 200.95592,12.817254 199.819714,12.8014109 Z M219.659029,12.6068833 C218.536746,12.6068833 218.300475,12.9061565 218.123273,13.6917486 C218.123273,13.7291578 216.572749,24.6825566 216.572749,24.6825566 C216.500939,24.9347221 216.533568,25.2056474 216.663118,25.4329114 C216.792669,25.6601753 217.007968,25.8241773 217.25941,25.8871313 C217.990751,26.2092574 218.792911,26.3305396 219.585195,26.2387773 C220.340638,26.1395446 220.731613,26.0134519 220.921345,24.9762406 L220.951132,24.7947841 L222.427821,14.380077 L222.444315,14.2539834 C222.483857,13.7508229 222.209701,13.2690904 221.748544,13.0557931 C221.096716,12.7412873 220.380723,12.5874637 219.659029,12.6068833 Z M208.197672,7.44771941 L207.963653,7.45190252 C207.215464,7.53170871 206.887311,7.63516117 206.657685,8.41384621 L206.615706,8.56792161 L206.575565,8.73877726 L204.360532,19.961522 L204.257164,20.4553228 L204.162945,20.9109322 C204.049467,21.5206686 203.984639,22.1389336 203.969209,22.7597264 C203.932292,24.9444207 205.209628,26.2462591 208.140856,26.2612227 C213.405252,26.2612227 216.026374,21.7272339 216.078059,17.2306541 C216.078059,15.2778965 215.206812,13.0408294 212.792426,13.0333476 C211.67102,13.0297816 210.598916,13.467932 209.796577,14.2440424 L209.628856,14.4154868 L209.469876,14.59705 L210.599543,9.15775973 L210.562625,9.16524156 L210.586815,9.01394898 C210.668294,8.39308142 210.460045,8.16206093 210.113157,7.97640726 L210.023634,7.93073963 L209.979333,7.93073963 L209.771531,7.82159921 C209.350142,7.61688788 208.895347,7.4939046 208.430705,7.45824584 L208.197672,7.44771941 Z M156.782476,7.42656486 L156.545345,7.42945703 C155.803719,7.50926322 155.470461,7.61271568 155.244806,8.39140072 L155.203683,8.54547612 L155.164641,8.71633177 L152.949608,19.9390765 L152.853623,20.4328773 L152.759404,20.8884867 C152.645926,21.4982231 152.581098,22.1164881 152.565668,22.7372809 C152.528751,24.9219752 153.806087,26.2238136 156.737315,26.2387773 C162.001711,26.2387773 164.622833,21.7047884 164.674518,17.2082086 C164.674518,15.255451 163.803271,13.0183839 161.388885,13.0109021 C160.267479,13.0073361 159.195375,13.4454865 158.393036,14.2215969 L158.225315,14.3930413 L158.066335,14.5746045 L159.196002,9.13531424 L159.166468,9.16524156 L159.189279,9.01394898 C159.265245,8.39308142 159.056963,8.16206093 158.715523,7.97640726 L158.627476,7.93073963 L158.583176,7.93073963 L158.373746,7.81799863 C157.94884,7.60633527 157.489005,7.47791536 157.018504,7.43870708 L156.782476,7.42656486 Z M106.899064,15.6669517 C106.517489,15.6727856 106.148659,15.8070178 105.850615,16.048525 C105.012677,16.8656683 104.489195,17.9584112 104.373926,19.1310389 L103.7611,22.6100898 C103.972574,22.8116808 104.224392,22.9647847 104.499444,23.0589996 C104.689984,23.1087628 104.88597,23.1339017 105.082737,23.1338181 C106.913831,23.1188542 108.191167,19.8567764 108.191167,17.5149637 L108.191167,17.5299273 C108.191167,16.6021804 107.903212,15.6669517 106.899064,15.6669517 Z M210.791512,16.4824711 C211.523704,16.4966035 211.821229,17.1647494 211.839588,18.1150405 L211.839961,18.2855921 L211.876879,18.2781103 L211.873567,18.4504891 C211.803193,20.3201484 210.619456,23.1408479 209.130237,23.1263918 C208.510028,23.1263918 208.148239,22.6998717 208.126089,21.9591706 C208.127272,21.6246845 208.156831,21.2911283 208.214336,20.9621728 L208.281141,20.6348867 L208.576479,19.2208209 L208.621318,19.0110947 C208.974934,17.4955873 209.866335,16.4824711 210.791512,16.4824711 Z M159.387971,16.4600257 C160.120163,16.4953565 160.424274,17.1646801 160.443365,18.1150367 L160.443804,18.2855921 L160.473338,18.2556648 L160.470026,18.4280436 C160.399646,20.2977029 159.215691,23.1184025 157.719313,23.1039463 C157.106487,23.1039463 156.744698,22.6774263 156.722537,21.9367251 C156.721913,21.6024548 156.749627,21.2689547 156.805274,20.9398907 L156.870217,20.6124412 L157.172938,19.1983754 L157.217777,18.9886492 C157.571393,17.4731418 158.462794,16.4600257 159.387971,16.4600257 Z M172.958742,15.9886573 C173.124141,15.9914803 173.28913,16.0046665 173.452765,16.0281146 L173.697087,16.0709705 L173.091644,19.0637024 L173.086683,19.1059074 C173.057976,19.2810496 172.914442,19.8567764 172.914442,19.8567764 C172.3533,22.0265071 171.555888,22.7297991 170.876611,22.7297991 C170.138267,22.7297991 169.776478,22.0489525 169.791245,20.9341599 C169.791245,19.1759299 171.039047,15.9811885 172.958742,15.9886573 Z M198.653129,15.9886573 C198.81851,15.991762 198.983476,16.0050402 199.147118,16.0283944 L199.391474,16.0709705 L198.778648,19.0637024 L198.773686,19.1059074 C198.744979,19.2810496 198.601445,19.8567764 198.601445,19.8567764 C198.05507,22.0265071 197.257658,22.7297991 196.578381,22.7297991 C195.840037,22.7297991 195.478248,22.0489525 195.485632,20.9341599 C195.485632,19.1759299 196.740817,15.9811885 198.653129,15.9886573 Z M19.8408692,15.2404874 C18.4921336,15.2617429 17.3617881,16.2798829 17.1828291,17.6346729 L17.1754457,17.6346729 C19.6990561,17.7719258 20.8529454,17.3233007 20.9561059,16.3965453 L20.9631527,16.2954254 C20.9631527,15.7118427 20.5939805,15.2629329 19.8408692,15.2404874 Z M54.8383964,15.2404874 C53.4852398,15.2575729 52.3483576,16.2759431 52.1655894,17.6346729 C54.6963287,17.7719258 55.8435808,17.3233007 55.9462751,16.3965453 L55.9532965,16.2954254 C55.9532965,15.7118427 55.5841243,15.2629329 54.8383964,15.2404874 Z M93.3873604,15.2404874 C92.0370208,15.2612435 90.9042809,16.2787139 90.7219369,17.6346729 C93.2526762,17.7719258 94.3999283,17.3233007 94.5026226,16.3965453 L94.509644,16.2954254 C94.5200118,15.9978028 94.4021283,15.7103255 94.1866653,15.507792 C93.9712024,15.3052585 93.6794651,15.2076953 93.3873604,15.2404874 Z M121.65857,15.2404874 C120.30823,15.2612435 119.17549,16.2787139 118.993146,17.6346729 L118.985763,17.6346729 C121.516502,17.7719258 122.663754,17.3233007 122.766448,16.3965453 L122.77347,16.2954254 C122.77347,15.7118427 122.404297,15.2629329 121.65857,15.2404874 Z M221.001828,7.40541183 L220.825613,7.41449337 C220.22565,7.44105589 219.662043,7.71333323 219.263933,8.16893789 C218.865823,8.62454255 218.667335,9.22442195 218.713948,9.83112441 C218.712778,10.3559882 218.92672,10.8577825 219.304681,11.2166649 C219.59865,11.4957957 219.971312,11.6689816 220.365578,11.7155745 L220.535705,11.7277321 L220.707478,11.7240274 L220.893793,11.7207749 C221.449721,11.6868505 221.974368,11.4371932 222.355981,11.0195591 C222.779996,10.5555211 222.9864,9.92900252 222.922512,9.29991449 C222.910632,8.76102328 222.677781,8.25149747 222.279897,7.89374092 C221.970431,7.61548583 221.582884,7.44860084 221.176817,7.41271426 L221.001828,7.40541183 Z M141.689855,6.13510047 C142.256602,6.08524247 142.818352,6.27596244 143.241057,6.66175036 C143.663763,7.04753827 143.909509,7.59379017 143.919655,8.17015819 C143.989402,8.84466796 143.770854,9.51716631 143.319242,10.0176993 C142.867629,10.5182323 142.226163,10.7989097 141.556953,10.7887986 L141.556953,10.7887986 L141.371313,10.7932421 C140.878123,10.7820186 140.403559,10.5875987 140.040069,10.2432316 C139.631142,9.85581867 139.399629,9.31352813 139.400987,8.74625909 C139.345988,8.08843146 139.559803,7.43655452 139.992465,6.94297064 C140.425126,6.44938675 141.038722,6.15734699 141.689855,6.13510047 Z" id="banabi-horizontal"></path>
                </g>
            </g>
        </g>
    </g>
</svg>