<?xml version="1.0" encoding="UTF-8"?>
<svg width="18px" height="18px" viewBox="0 0 18 18" version="1.1" xmlns="http://www.w3.org/2000/svg" xmlns:xlink="http://www.w3.org/1999/xlink">
    <g id="final" stroke="none" stroke-width="1" fill="none" fill-rule="evenodd">
        <g id="Anasayfa-Copy" transform="translate(-874.000000, -121.000000)" fill="#BFBFBF">
            <g id="Group-20" transform="translate(185.000000, 100.000000)">
                <g id="Group-14" transform="translate(252.000000, 0.000000)">
                    <g id="gönderim-ücreti-copy-4" transform="translate(434.000000, 13.000000)">
                        <g id="Group-15" transform="translate(0.000000, 5.000000)">
                            <g id="basket" transform="translate(3.000000, 3.000000)">
                                <path d="M16.5116135,9 C17.5258305,9 18.242596,9.9546118 17.9232073,10.8800902 L15.8045152,17.0203656 C15.6027129,17.6052686 15.0338366,18 14.3928284,18 L3.60713969,18 C2.96613145,18 2.39734818,17.6052686 2.19554585,17.0203656 L0.0767607745,10.8800902 C-0.242534949,9.9546118 0.474137548,9 1.48835462,9 L16.5116135,9 Z M9,0 C12.3084323,0 15,2.67859195 15,5.97095968 C15,6.53927058 14.5370225,7 13.9659386,7 C13.3948548,7 12.9318773,6.53927058 12.9318773,5.97095968 C12.9318773,3.81343633 11.1680506,2.05808064 9,2.05808064 C6.83185536,2.05808064 5.06812271,3.81343633 5.06812271,5.97095968 C5.06812271,6.53927058 4.60514524,7 4.03406135,7 C3.46288346,7 3,6.53927058 3,5.97095968 C3,2.67859195 5.69147369,0 9,0 Z"></path>
                            </g>
                        </g>
                    </g>
                </g>
            </g>
        </g>
    </g>
</svg>