<svg xmlns="http://www.w3.org/2000/svg" width="16" height="14" viewBox="0 0 16 14"><g><g><g><path fill="#fff" d="M10.647.1L4.854 3.91a.492.492 0 0 0-.194.412V9.28a.492.492 0 0 0 .194.412l5.793 3.81a.59.59 0 0 0 .697-.052c.209-.17.329-.463.316-.77V.923c.013-.308-.107-.602-.316-.771A.59.59 0 0 0 10.647.1z"/></g><g><path fill="#fff" d="M3.655 4.12H1c-.552 0-1 .554-1 1.237V8.24c0 .683.448 1.237 1 1.237h.322v2.678c0 .57.373 1.03.833 1.03.46 0 .834-.46.834-1.03V9.478h.666c.184 0 .334-.185.334-.413V4.532c0-.227-.15-.412-.334-.412z"/></g><g><path fill="#fff" d="M15.493 6.18H13.16c-.276 0-.5.277-.5.618 0 .342.224.618.5.618h2.333c.276 0 .5-.276.5-.618 0-.341-.224-.618-.5-.618z"/></g><g><path fill="#fff" d="M13.38 4.446l2.02-1.442a.657.657 0 0 0 .25-.536.657.657 0 0 0-.25-.535.419.419 0 0 0-.5 0l-2.02 1.442a.657.657 0 0 0-.25.536c0 .22.095.425.25.535.155.11.345.11.5 0z"/></g><g><path fill="#fff" d="M15.4 10.595l-2.02-1.442a.419.419 0 0 0-.5 0 .657.657 0 0 0-.25.535c0 .221.095.425.25.536l2.02 1.442c.155.11.346.11.5 0a.657.657 0 0 0 .25-.535.657.657 0 0 0-.25-.536z"/></g></g></g></svg>