<?xml version="1.0" encoding="UTF-8"?>
<svg width="18px" height="18px" viewBox="0 0 18 18" version="1.1" xmlns="http://www.w3.org/2000/svg" xmlns:xlink="http://www.w3.org/1999/xlink">
    <g id="final" stroke="none" stroke-width="1" fill="none" fill-rule="evenodd">
        <g id="Anasayfa-hover" transform="translate(-754.000000, -121.000000)" fill="#BFBFBF">
            <g id="Group-20" transform="translate(222.000000, 100.000000)">
                <g id="Group-14" transform="translate(252.000000, 0.000000)">
                    <g id="Group" transform="translate(277.000000, 18.000000)">
                        <g id="time" transform="translate(3.000000, 3.000000)">
                            <path d="M10.1523985,10.1604632 L4.9322227,10.1604632 C4.36579119,10.1604632 3.90660951,9.70127904 3.90660951,9.13484445 C3.90660951,8.56840986 4.36579119,8.10922568 4.9322227,8.10922568 L8.10117213,8.10922568 L8.10117213,3.72846608 C8.10117213,3.16212916 8.56035381,2.70284731 9.12678533,2.70284731 C9.69321684,2.70284731 10.1523985,3.16212916 10.1523985,3.72846608 L10.1523985,10.1604632 Z M9,0 C4.02948774,0 0,4.0295096 0,9.00004884 C0,13.9705881 4.02948774,18 9,18 C13.9705123,18 18,13.9705881 18,9.00004884 C18,4.0295096 13.9705123,0 9,0 L9,0 Z" id="Fill-52"></path>
                        </g>
                    </g>
                </g>
            </g>
        </g>
    </g>
</svg>