<?xml version="1.0" encoding="UTF-8"?>
<svg width="20px" height="14px" viewBox="0 0 20 14" version="1.1" xmlns="http://www.w3.org/2000/svg" xmlns:xlink="http://www.w3.org/1999/xlink">
    <g id="final" stroke="none" stroke-width="1" fill="none" fill-rule="evenodd">
        <g id="Anasayfa-Copy" transform="translate(-1040.000000, -123.000000)" fill="#BFBFBF">
            <g id="Group-20" transform="translate(185.000000, 100.000000)">
                <g id="Group-14" transform="translate(252.000000, 0.000000)">
                    <g id="gönderim-ücreti-copy-3" transform="translate(601.000000, 13.000000)">
                        <g id="Group-12" transform="translate(0.000000, 5.000000)">
                            <g id="motorcycle" transform="translate(2.000000, 5.000000)">
                                <path d="M8.15678637,3.39257713 C8.73845802,3.39257713 9.21001898,3.87374019 9.21001898,4.46725604 C9.21001898,5.0607719 8.73845802,5.54193496 8.15678637,5.54193496 L8.14,5.541 L9.7522327,8.69512107 C9.9942129,9.16851713 10.4543073,9.48010685 10.9690108,9.528751 L11.1106155,9.53542229 L13.3700867,9.53542229 C13.6989825,8.71221824 14.3043998,7.99951072 15.1386558,7.55850157 C16.7959651,6.68234515 18.7929899,7.17230104 19.8945755,8.62829558 C20.1054135,8.90712591 19.9862067,9.31501541 19.6598004,9.42941987 L19.6598004,9.42941987 L19.5395914,9.47103761 C19.7530405,9.89616579 19.8734725,10.3779317 19.8734725,10.888316 C19.8734725,12.6068253 18.5081001,14 16.8238854,14 C15.1396707,14 13.7733408,12.6068253 13.7733408,10.888316 C13.7733408,10.8822791 13.7733576,10.8762462 13.7733913,10.8702173 L13.5410934,10.8705643 L13.5410934,10.8729091 L8.77981176,10.8502431 L0.767296813,10.8502431 C0.286544001,10.8502431 -0.0713635896,10.405326 0.0121290318,9.922209 C0.442326678,7.43041938 2.57454822,5.53712822 5.13993561,5.53712822 L4.953,5.541 L2.25427933,5.54193496 C1.67251194,5.54193496 1.20104673,5.0607719 1.20104673,4.46725604 C1.20104673,3.87374019 1.67251194,3.39257713 2.25427933,3.39257713 L8.15678637,3.39257713 Z M3.03701309,11.557333 C3.25962816,11.9374762 3.66722918,12.1921751 4.13342823,12.1921751 C4.59953154,12.1921751 5.0072283,11.9374762 5.22965188,11.557333 L7.11216155,11.557333 C6.81323498,12.9543179 5.59311288,13.9999805 4.13438572,13.9999805 C2.67460532,13.9999805 1.45457896,12.9543179 1.15450342,11.557333 L3.03701309,11.557333 Z M17.8210747,10.0732767 L15.5471185,10.8705643 L15.546,10.87 L15.545644,10.888316 C15.545644,11.5633487 16.0488842,12.118167 16.69324,12.1848824 L16.8238854,12.1916085 C17.5295512,12.1916085 18.1011693,11.6083509 18.1011693,10.888316 C18.1011693,10.5799843 17.9963514,10.2965722 17.8210747,10.0732767 Z M14.4263833,0.625161671 L14.4263833,0.692573349 L14.4254258,2.26453551 L17.3409652,6.58083684 C17.1713947,6.55934327 16.9991433,6.54859648 16.8239237,6.54859648 C15.9726245,6.54859648 15.1807851,6.80358847 14.5163868,7.24225287 L13.0513402,2.8771025 C12.9767522,2.65532785 12.9528151,2.41889848 12.9795289,2.18637705 L13.0581384,1.51431193 L11.6783079,1.87667412 C11.4208404,1.9440858 11.141255,1.81805527 11.0426341,1.56599422 C10.9295553,1.27680789 11.0790185,0.964174021 11.3508483,0.863544995 L13.6086918,0.037019208 C14.0070052,-0.108550937 14.4263833,0.193336142 14.4263833,0.625161671 Z M16.0032065,0.554428258 L16.0032065,2.36741159 C16.0032065,2.51171166 15.8724142,2.62484605 15.7349195,2.59094481 C15.2352085,2.46784522 14.8640876,2.00866423 14.8640876,1.46096878 C14.8640876,0.913175621 15.2352085,0.453994629 15.7349195,0.330895043 C15.8724142,0.297091506 16.0032065,0.410225887 16.0032065,0.554428258 Z"></path>
                            </g>
                        </g>
                    </g>
                </g>
            </g>
        </g>
    </g>
</svg>