<svg xmlns="http://www.w3.org/2000/svg" width="21" height="21" viewBox="0 0 21 21"><g><g><path fill="#c4c4c4" d="M20.132 9.85l-2.064 8.327c-.27 1.095-1.408 1.99-2.526 1.99H5.378c-1.119 0-2.255-.895-2.526-1.99L.79 9.848c-.271-1.093.421-1.988 1.54-1.988H18.59c1.119 0 1.812.895 1.54 1.989zM5.81 12.11l.422 4.242c0 .47.379.849.845.849.467 0 .846-.38.846-.849L7.5 12.11a.847.847 0 0 0-.845-.848.847.847 0 0 0-.845.848zm3.82-.034v4.312a.83.83 0 1 0 1.658 0v-4.312a.83.83 0 1 0-1.659 0zm3.787.033l-.422 4.243c0 .47.378.849.845.849.467 0 .845-.38.845-.849l.423-4.243a.847.847 0 0 0-.845-.848.847.847 0 0 0-.846.848zM5.39 5.537c0-2.671 2.263-4.886 5.073-4.886 2.811 0 5.074 2.18 5.074 4.886 0 .598-.474 1.055-1.095 1.055-.62 0-1.095-.457-1.095-1.055 0-1.511-1.277-2.777-2.884-2.777-1.605 0-2.883 1.23-2.883 2.777 0 .598-.474 1.055-1.095 1.055-.62 0-1.095-.457-1.095-1.055z"/></g></g></svg>